<svg xmlns="http://www.w3.org/2000/svg" width="210.287" height="79.81" viewBox="0 0 210.287 79.81">
  <g id="Group_1530" data-name="Group 1530" transform="translate(-258.085 -235.828)">
    <rect id="Rectangle_267" data-name="Rectangle 267" width="210.287" height="60.761" transform="translate(258.085 235.828)" fill="#fff"/>
    <g id="Group_1529" data-name="Group 1529" transform="translate(260.752 238.518)">
      <rect id="Rectangle_268" data-name="Rectangle 268" width="204.894" height="55.375" fill="#d60812"/>
      <rect id="Rectangle_269" data-name="Rectangle 269" width="73.906" height="55.375" fill="#100f0c"/>
      <g id="Group_1528" data-name="Group 1528" transform="translate(65.211 60.544)">
        <path id="Path_2022" data-name="Path 2022" d="M363.223,342.076h.178a6.458,6.458,0,0,0,.46,1.467,4.254,4.254,0,0,0,.62.984,2.761,2.761,0,0,0,.71.6,3.055,3.055,0,0,0,.75.307,3.58,3.58,0,0,0,.726.113c.23.01.449.016.653.016a3.3,3.3,0,0,0,1.4-.258,2.445,2.445,0,0,0,.871-.653,2.346,2.346,0,0,0,.451-.855,3.155,3.155,0,0,0,.129-.846,2.078,2.078,0,0,0-.209-.968,2.33,2.33,0,0,0-.533-.685,2.985,2.985,0,0,0-.7-.46,4.879,4.879,0,0,0-.718-.274L366.158,340a4.774,4.774,0,0,1-1.976-1.065,2.379,2.379,0,0,1-.669-1.773,3.477,3.477,0,0,1,.258-1.346,3.159,3.159,0,0,1,.726-1.072,3.382,3.382,0,0,1,1.121-.71,4.28,4.28,0,0,1,2.371-.161,4.21,4.21,0,0,1,.653.218l.492.218a1.08,1.08,0,0,0,.444.1.494.494,0,0,0,.282-.056,1.076,1.076,0,0,0,.2-.282h.226v2.918h-.194a4.82,4.82,0,0,0-.331-1.121,3.463,3.463,0,0,0-.6-.951,2.828,2.828,0,0,0-.895-.661,2.8,2.8,0,0,0-1.218-.25,3.937,3.937,0,0,0-.854.1,2.7,2.7,0,0,0-.871.363,2.175,2.175,0,0,0-.669.677,1.953,1.953,0,0,0-.267,1.065,1.726,1.726,0,0,0,.21.879,2.026,2.026,0,0,0,.54.613,3.312,3.312,0,0,0,.742.419q.411.169.83.3l1.951.613q.306.1.774.258a3.5,3.5,0,0,1,.911.484,2.8,2.8,0,0,1,.758.855,2.63,2.63,0,0,1,.314,1.354,3.76,3.76,0,0,1-.282,1.444,3.623,3.623,0,0,1-.814,1.209,4,4,0,0,1-1.291.839,4.429,4.429,0,0,1-1.709.314c-.226,0-.425,0-.6-.008a4.383,4.383,0,0,1-.484-.04c-.15-.022-.3-.046-.452-.073a4.677,4.677,0,0,1-.5-.121q-.322-.1-.693-.226a2.031,2.031,0,0,0-.645-.129.44.44,0,0,0-.331.1.834.834,0,0,0-.153.258h-.242Z" transform="translate(-363.223 -333.772)" fill="#100f0c"/>
        <path id="Path_2023" data-name="Path 2023" d="M378.708,345.45h1.242v-6.466h-1.242v-.226h2.628v6.692h1.242v.226h-3.87ZM379.756,335a.853.853,0,1,1,.25.6A.823.823,0,0,1,379.756,335Z" transform="translate(-368.711 -333.905)" fill="#100f0c"/>
        <path id="Path_2024" data-name="Path 2024" d="M386.026,347.884h1.242v-6.466h-1.242v-.226h2.6v1.726h.032q.1-.209.283-.533a2.8,2.8,0,0,1,.507-.629,2.76,2.76,0,0,1,1.984-.742,2.761,2.761,0,0,1,1.733.516,1.948,1.948,0,0,1,.669,1.645v4.708h1.242v.226H391.2v-.226h1.241v-5.208a1.692,1.692,0,0,0-.3-1.032,1.079,1.079,0,0,0-.927-.4,2.235,2.235,0,0,0-.984.226,2.582,2.582,0,0,0-.823.629,2.985,2.985,0,0,0-.556.951,3.425,3.425,0,0,0-.2,1.194v3.644H389.9v.226h-3.87Z" transform="translate(-371.304 -336.339)" fill="#100f0c"/>
        <path id="Path_2025" data-name="Path 2025" d="M408.253,346.319a4.687,4.687,0,0,1-.185.507,2.36,2.36,0,0,1-.435.662,2.666,2.666,0,0,1-.806.58,2.985,2.985,0,0,1-1.314.25,4.525,4.525,0,0,1-1.274-.194,3.593,3.593,0,0,1-1.209-.62,3.213,3.213,0,0,1-.895-1.121,3.8,3.8,0,0,1-.347-1.71,3.6,3.6,0,0,1,.3-1.467,3.764,3.764,0,0,1,.806-1.177,3.691,3.691,0,0,1,1.194-.782,3.8,3.8,0,0,1,1.459-.282,4.023,4.023,0,0,1,.895.105,3.006,3.006,0,0,1,.839.322,1.988,1.988,0,0,1,.629.565,1.413,1.413,0,0,1,.249.846.752.752,0,0,1-.218.556.838.838,0,0,1-.62.218,1.186,1.186,0,0,1-.524-.121.421.421,0,0,1-.25-.411,1.71,1.71,0,0,1,.113-.548,1.694,1.694,0,0,0,.113-.532.627.627,0,0,0-.371-.573,1.762,1.762,0,0,0-.855-.2,3.233,3.233,0,0,0-.733.088,1.339,1.339,0,0,0-.693.444,2.717,2.717,0,0,0-.516,1.065,7.341,7.341,0,0,0-.2,1.935,9.081,9.081,0,0,0,.089,1.306,3.438,3.438,0,0,0,.322,1.072,1.842,1.842,0,0,0,.645.726,1.943,1.943,0,0,0,1.072.266,2.819,2.819,0,0,0,1.169-.21,2.152,2.152,0,0,0,.726-.507,2.211,2.211,0,0,0,.4-.6q.129-.306.193-.5Z" transform="translate(-376.89 -336.321)" fill="#100f0c"/>
        <path id="Path_2026" data-name="Path 2026" d="M415.429,344.094c0,.107,0,.218-.008.331s-.008.256-.008.427a10.016,10.016,0,0,0,.065,1.112,3.327,3.327,0,0,0,.282,1.048,1.947,1.947,0,0,0,.645.773,1.908,1.908,0,0,0,1.137.307,2.823,2.823,0,0,0,1.169-.21,2.152,2.152,0,0,0,.726-.507,2.227,2.227,0,0,0,.4-.6q.128-.306.193-.5l.242.048a4.6,4.6,0,0,1-.186.507,2.331,2.331,0,0,1-.435.662,2.654,2.654,0,0,1-.806.58,2.987,2.987,0,0,1-1.314.25,4.208,4.208,0,0,1-1.492-.258,3.4,3.4,0,0,1-1.185-.742,3.342,3.342,0,0,1-.773-1.153,3.9,3.9,0,0,1-.274-1.491,3.515,3.515,0,0,1,.282-1.378,3.878,3.878,0,0,1,1.927-2.016,3.2,3.2,0,0,1,2.387-.153,2.812,2.812,0,0,1,1.7,1.484,3.291,3.291,0,0,1,.3,1.484Zm3.322-.226a3.009,3.009,0,0,0,.032-.419v-.4a3.258,3.258,0,0,0-.1-.9,1.482,1.482,0,0,0-.29-.565,1.033,1.033,0,0,0-.452-.3,1.805,1.805,0,0,0-.572-.088,1.7,1.7,0,0,0-.9.218,1.6,1.6,0,0,0-.564.589,3.015,3.015,0,0,0-.314.855,6.7,6.7,0,0,0-.137,1.016Z" transform="translate(-381.147 -336.321)" fill="#100f0c"/>
        <path id="Path_2027" data-name="Path 2027" d="M433.257,341.516v-.226h3.9v.226H435.9v6.466h1.258v.226h-3.9v-.226h1.258v-6.466Z" transform="translate(-388.043 -336.436)" fill="#100f0c"/>
        <path id="Path_2028" data-name="Path 2028" d="M441.922,343.215a3.868,3.868,0,0,1,.854-1.185,4.043,4.043,0,0,1,1.2-.782,3.483,3.483,0,0,1,1.363-.282,3.236,3.236,0,0,1,1.435.331,3.476,3.476,0,0,1,1.185.96,4.953,4.953,0,0,1,.815,1.524,6.234,6.234,0,0,1,.306,2.023,9.489,9.489,0,0,1-.427,2.943,7.69,7.69,0,0,1-1.113,2.234,5.111,5.111,0,0,1-1.564,1.419,3.567,3.567,0,0,1-1.781.5,2.422,2.422,0,0,1-.96-.177,2.09,2.09,0,0,1-.677-.452,1.786,1.786,0,0,1-.394-.613,1.84,1.84,0,0,1-.129-.661.751.751,0,0,1,.25-.613,1,1,0,0,1,.669-.21.886.886,0,0,1,.564.145.443.443,0,0,1,.178.355.618.618,0,0,1-.065.265c-.043.092-.091.186-.145.283a2.273,2.273,0,0,0-.145.314,1.05,1.05,0,0,0-.065.378.638.638,0,0,0,.29.565,1.281,1.281,0,0,0,.726.194,2.141,2.141,0,0,0,1.419-.484,3.636,3.636,0,0,0,.952-1.274,8.437,8.437,0,0,0,.589-1.79,19.743,19.743,0,0,0,.331-2.032l-.032-.032a2.455,2.455,0,0,1-.911.886,2.774,2.774,0,0,1-1.427.355,3.6,3.6,0,0,1-2.54-1.032,3.634,3.634,0,0,1-.782-1.145,3.609,3.609,0,0,1,.032-2.91Zm1.354,2.806a3.432,3.432,0,0,0,.274,1.064,1.736,1.736,0,0,0,.613.733,1.885,1.885,0,0,0,1.08.274,2.95,2.95,0,0,0,.863-.129,2.142,2.142,0,0,0,.758-.4,1.994,1.994,0,0,0,.532-.71,2.483,2.483,0,0,0,.2-1.048,19.435,19.435,0,0,0-.089-1.959,5.052,5.052,0,0,0-.338-1.451,2.015,2.015,0,0,0-.693-.9,1.992,1.992,0,0,0-1.153-.306,2.015,2.015,0,0,0-1.1.266,1.737,1.737,0,0,0-.646.742,3.543,3.543,0,0,0-.3,1.129,13.14,13.14,0,0,0-.072,1.444A11.726,11.726,0,0,0,443.276,346.021Z" transform="translate(-390.999 -336.321)" fill="#100f0c"/>
        <path id="Path_2029" data-name="Path 2029" d="M461.743,341.29q-.049.628-.121,1.306a15.282,15.282,0,0,1-.25,1.516q-.178.839-.516,1.911t-.9,2.508q-.533,1.37-.927,2.242a10.287,10.287,0,0,1-.726,1.37,2.232,2.232,0,0,1-.637.686,1.259,1.259,0,0,1-.661.185.7.7,0,0,1-.524-.177.572.572,0,0,1-.169-.4,1.039,1.039,0,0,1,.338-.613l.807-.823a11.75,11.75,0,0,0,1.54-1.943,15.48,15.48,0,0,0,1.145-2.161,16.679,16.679,0,0,0,.774-2.193,16,16,0,0,0,.427-2.023H457.6a1.9,1.9,0,0,0-.75.129,1.384,1.384,0,0,0-.492.347,1.443,1.443,0,0,0-.291.507,3.6,3.6,0,0,0-.145.629h-.161v-3Z" transform="translate(-396.018 -336.436)" fill="#100f0c"/>
        <path id="Path_2030" data-name="Path 2030" d="M468.761,333.847q.258.274.524.516a3.649,3.649,0,0,0,.573.427,2.779,2.779,0,0,0,.669.291,2.944,2.944,0,0,0,.815.1,2.656,2.656,0,0,0,.564-.056,1.651,1.651,0,0,0,.508-.21,3.011,3.011,0,0,0,.516-.411,7.127,7.127,0,0,0,.588-.661l.178.113q-.435.6-.79,1.048a6.658,6.658,0,0,1-.693.766,2.51,2.51,0,0,1-.718.476,2.193,2.193,0,0,1-.863.161,3.3,3.3,0,0,1-1.089-.193,12.285,12.285,0,0,1-1.234-.516l-.6,3.822.032.032a2.454,2.454,0,0,1,.984-.822,3.438,3.438,0,0,1,1.484-.291,3.507,3.507,0,0,1,1.483.3,3.388,3.388,0,0,1,1.089.783,3.281,3.281,0,0,1,.669,1.1,3.676,3.676,0,0,1,.225,1.265,4.274,4.274,0,0,1-.87,2.419,4.019,4.019,0,0,1-1.21,1.04,3.635,3.635,0,0,1-1.838.427,3.5,3.5,0,0,1-1.306-.21,2.413,2.413,0,0,1-.814-.508,1.777,1.777,0,0,1-.42-.613,1.538,1.538,0,0,1-.121-.524.565.565,0,0,1,.25-.524,1.068,1.068,0,0,1,.573-.154.84.84,0,0,1,.54.161.582.582,0,0,1,.2.484c0,.075,0,.161-.008.258s-.008.178-.008.242a1.437,1.437,0,0,0,.1.589.877.877,0,0,0,.282.362,1.049,1.049,0,0,0,.419.178,2.628,2.628,0,0,0,.516.048,2.239,2.239,0,0,0,.927-.178,1.53,1.53,0,0,0,.669-.62,3.478,3.478,0,0,0,.411-1.209,11.2,11.2,0,0,0,.138-1.927,7.754,7.754,0,0,0-.089-1.225,2.6,2.6,0,0,0-.322-.935,1.61,1.61,0,0,0-.621-.6,2.015,2.015,0,0,0-.967-.21,2.8,2.8,0,0,0-1.169.218,2.612,2.612,0,0,0-.774.516,2.191,2.191,0,0,0-.451.628,3.636,3.636,0,0,0-.218.573l-.194-.048,1.032-6.708Z" transform="translate(-400.036 -333.799)" fill="#100f0c"/>
      </g>
      <path id="Path_2031" data-name="Path 2031" d="M310.891,256.177v8.816h-.671a18.213,18.213,0,0,0-.876-2.242,11.15,11.15,0,0,0-1.727-2.655,10.083,10.083,0,0,0-2.861-2.243,8.85,8.85,0,0,0-4.279-.954h-8.2v15.93h2.887a8.479,8.479,0,0,0,3.222-.541,5.765,5.765,0,0,0,2.191-1.547,8.387,8.387,0,0,0,1.444-2.423,18.687,18.687,0,0,0,.928-3.171h.67v16.034h-.67a29.653,29.653,0,0,0-.851-2.887,8.581,8.581,0,0,0-1.314-2.449,6.039,6.039,0,0,0-2.036-1.676,6.6,6.6,0,0,0-3.016-.618h-3.454v18.612h8.455a10.97,10.97,0,0,0,4.279-.8,10.648,10.648,0,0,0,3.377-2.243,12.792,12.792,0,0,0,2.448-3.377,18.337,18.337,0,0,0,1.5-4.151H313v11.291H280.061v-.722H284.8V256.9h-4.743v-.722Z" transform="translate(-268.54 -245.729)" fill="#fff"/>
      <path id="Path_2032" data-name="Path 2032" d="M360.522,292.884h-.566l-23.2-33.047h-.1v32.325H341.4v.722H331.086v-.722h4.743V256.9h-4.743v-.722h12.167l17.167,24.54Z" transform="translate(-286.623 -245.729)" fill="#fff"/>
      <path id="Path_2033" data-name="Path 2033" d="M373.61,292.078V256.815h-4.743v-.722h4.743q2.629,0,5.258-.077t5.259-.077a35.207,35.207,0,0,1,5,.387,17.61,17.61,0,0,1,4.949,1.444,10.5,10.5,0,0,1,3.79,2.939,7.513,7.513,0,0,1,1.52,4.872,7.739,7.739,0,0,1-.979,3.789,8.81,8.81,0,0,1-2.99,3.093,16.733,16.733,0,0,1-5.052,2.088,29.316,29.316,0,0,1-7.166.773h-2.114v16.755h4.743v.722H373.346Zm9.074-17.477q4.381,0,6.341-1.985t1.959-6.728q0-4.486-1.7-6.857T383.1,256.66q-.568,0-1.083.052t-.928.1V274.6Z" transform="translate(-300.012 -245.645)" fill="#fff"/>
      <path id="Path_2034" data-name="Path 2034" d="M430.248,256.177v.722H425.5v35.263h8.507a10.913,10.913,0,0,0,3.428-.568,9.474,9.474,0,0,0,3.248-1.882,13.187,13.187,0,0,0,2.732-3.4,17.927,17.927,0,0,0,1.882-5.078h.67v11.652H413.286v-.722h4.743V256.9h-4.743v-.722Z" transform="translate(-315.754 -245.729)" fill="#fff"/>
      <path id="Path_2035" data-name="Path 2035" d="M480.446,256.177v.722H475.7v23.148a46.979,46.979,0,0,0,.232,4.717,12.507,12.507,0,0,0,1.083,4.1,7.02,7.02,0,0,0,2.526,2.913,8.071,8.071,0,0,0,4.511,1.109,14.544,14.544,0,0,0,4.666-.644,9.471,9.471,0,0,0,3.119-1.7,7.738,7.738,0,0,0,1.908-2.371,11.7,11.7,0,0,0,.979-2.63,13.509,13.509,0,0,0,.361-2.475q.05-1.16.052-1.933V256.9h-4.692v-.722h10.311v.722h-4.795v24.179q0,.825-.051,2.088a12.7,12.7,0,0,1-.413,2.655,13.308,13.308,0,0,1-1.083,2.784,7.793,7.793,0,0,1-2.114,2.5,11.183,11.183,0,0,1-3.506,1.8,16.822,16.822,0,0,1-5.207.7,24.025,24.025,0,0,1-8.042-1.108,11.53,11.53,0,0,1-4.666-2.887,8.812,8.812,0,0,1-2.139-4.047,20.612,20.612,0,0,1-.516-4.588V256.9h-4.795v-.722Z" transform="translate(-333.526 -245.729)" fill="#fff"/>
      <path id="Path_2036" data-name="Path 2036" d="M522.421,280.986q.1.619.361,1.624a15.41,15.41,0,0,0,.748,2.165,17.42,17.42,0,0,0,1.238,2.372,11.192,11.192,0,0,0,1.83,2.242,10.682,10.682,0,0,0,2.295,1.8,9.8,9.8,0,0,0,2.114.9,7.835,7.835,0,0,0,1.907.31q.9.026,1.676.026a10.289,10.289,0,0,0,4.485-.851,7.951,7.951,0,0,0,2.758-2.088,7.629,7.629,0,0,0,1.418-2.6,8.444,8.444,0,0,0,.412-2.4,5.208,5.208,0,0,0-.9-3.145,7.241,7.241,0,0,0-2.4-2.062,17.213,17.213,0,0,0-3.4-1.392q-1.908-.567-3.918-1.16a37.465,37.465,0,0,1-3.918-1.392,13.009,13.009,0,0,1-3.4-2.062,9.386,9.386,0,0,1-2.4-3.119,10.572,10.572,0,0,1-.9-4.64,8.973,8.973,0,0,1,.928-3.97,10.857,10.857,0,0,1,2.578-3.376,13.032,13.032,0,0,1,3.944-2.372,13.478,13.478,0,0,1,4.975-.9,12.919,12.919,0,0,1,2.99.309q1.288.31,2.268.644t1.727.644a3.6,3.6,0,0,0,1.366.31,1.394,1.394,0,0,0,.954-.232,2.782,2.782,0,0,0,.489-.851h.825v9.8h-.67q-.619-1.8-1.315-3.557a13.253,13.253,0,0,0-1.778-3.171,8.286,8.286,0,0,0-2.733-2.294,8.858,8.858,0,0,0-4.176-.876,10.694,10.694,0,0,0-3.634.567,8.437,8.437,0,0,0-2.655,1.5,6.621,6.621,0,0,0-1.65,2.062,5.125,5.125,0,0,0-.568,2.32,4.616,4.616,0,0,0,.953,2.99,8.25,8.25,0,0,0,2.5,2.036,19.11,19.11,0,0,0,3.531,1.469q1.984.619,4.073,1.289t4.073,1.469a13.989,13.989,0,0,1,3.531,2.036,9.782,9.782,0,0,1,2.5,2.99,8.969,8.969,0,0,1,.954,4.331,11.446,11.446,0,0,1-1.031,4.794,12,12,0,0,1-2.912,3.97,14.287,14.287,0,0,1-4.485,2.706,15.991,15.991,0,0,1-5.8,1.005,16.351,16.351,0,0,1-3.171-.309q-1.573-.309-2.939-.644t-2.423-.644a6.25,6.25,0,0,0-1.572-.309,1.755,1.755,0,0,0-1.031.232,2.064,2.064,0,0,0-.568.954h-.824V280.986Z" transform="translate(-354.157 -245.277)" fill="#fff"/>
    </g>
  </g>
</svg>
